<?xml version="1.0" encoding="UTF-8"?>
<svg id="Calque_2" data-name="Calque 2" xmlns="http://www.w3.org/2000/svg" viewBox="0 0 160.79 74.2">
  <g id="Calque_1-2" data-name="Calque 1">
    <g>
      <path d="M81.57.4c-.55.52-.52.84.18,1.99l.6.94.6-1.05c.55-.97.55-1.07.16-1.68-.47-.73-.97-.81-1.55-.21Z"/>
      <path d="M.07.69c1.28.16,1.91.63,2.33,1.7.34.84.42,2.52.42,10.24,0,5.34-.1,9.61-.26,10.16-.34,1.21-1.05,1.83-2.31,2.07-.52.1,3.82.21,9.72.24l10.66.03v-1.18c0-.65-.05-1.18-.1-1.18s-.6.18-1.23.39c-3.22,1.15-10.56,1.96-12.58,1.44-1.89-.52-1.94-.71-2.02-11-.05-4.98,0-9.54.08-10.14.24-1.55,1.21-2.65,2.44-2.78.52-.05-1.02-.1-3.48-.1S-.35.64.07.69Z"/>
      <path d="M25.35,7.63c0,3.93.1,8.15.26,9.33.45,3.9,2.17,6.5,5.19,7.7,1.31.52,1.94.6,5.42.6s4.11-.08,5.42-.6c3.01-1.21,4.74-3.8,5.19-7.7.16-1.18.26-5.4.26-9.33V.51h-1.83v7.13c-.03,9.09-.26,11.92-1.23,13.81-1.28,2.46-3.88,3.69-7.81,3.69s-6.52-1.23-7.81-3.69c-.97-1.89-1.21-4.72-1.23-13.81V.51h-1.83v7.13Z"/>
      <path d="M53.38.66c0,.08.37.58.81,1.07l.79.92-.08,9.61c-.08,8.15-.13,9.72-.5,10.51-.52,1.1-1.23,1.78-2.23,2.1-.5.13.94.21,3.96.21,3.33,0,4.43-.08,3.72-.24-1.49-.34-2.2-.94-2.93-2.44-1.15-2.36-1.44-4.66-1.62-12.34-.1-5.97-.08-7.02.21-6.73.21.18,4.43,5.13,9.41,11l9.06,10.66,1.26.08,1.26.08-.94-1.15-.94-1.15v-9.41c0-5.42.1-9.8.26-10.35.31-1.1,1.21-1.99,2.25-2.33.5-.13-.86-.21-3.82-.21-2.67,0-4.17.08-3.59.21,1.81.34,3.04,2.04,3.77,5.21.47,2.04.84,16.58.39,16.14-.13-.16-4.3-5.03-9.22-10.87L55.66.64l-1.13-.08c-.63-.05-1.15,0-1.15.1Z"/>
      <path d="M90.45.82c-.08.18-1.91,5.24-4.09,11.21s-4.11,11.32-4.32,11.84l-.34,1h8.02l.47-1.7.45-1.7h8.57l.5,1.62.47,1.65,4.11.08c2.25.03,4.11,0,4.11-.05,0-.18-8.04-22.27-8.51-23.42l-.37-.84h-4.48c-3.33,0-4.51.08-4.58.31ZM96.32,11.75l1.26,4.22h-2.62c-2.36,0-2.59-.05-2.46-.47,1.05-3.77,2.41-8.12,2.49-8.04.05.05.65,1.99,1.34,4.3Z"/>
      <path d="M111.46.69c-.1.08-.18,5.58-.18,12.18v12h7.86v-8.91h2.88l2.23,4.45,2.23,4.45h4.32c4.06,0,4.32-.03,4.11-.47-.13-.24-1.34-2.46-2.65-4.95-1.31-2.46-2.38-4.56-2.38-4.64s.45-.37,1-.65c2.23-1.15,3.43-3.33,3.46-6.18,0-3.82-2.25-6.47-6.16-7.18-1.65-.31-16.43-.42-16.71-.1ZM125.84,6.87c.81.94.81,2.04,0,2.99-.63.73-.68.73-3.62.73h-2.96l-.08-1.94c-.05-1.07,0-2.12.08-2.33.1-.31.68-.34,3.04-.26,2.8.08,2.93.1,3.54.81Z"/>
      <path d="M137.21,3.65v3.14h7.86v18.08h7.86V6.79h7.86V.51h-23.58v3.14Z"/>
      <path d="M51.28,28.51c0,.1-.55.29-1.23.37-2.86.39-5.71,1-6.29,1.36-.31.21-.73.39-.94.39-.18,0-.47.13-.65.31s-.79.34-1.36.37c-1.28.08-3.17.94-4.72,2.2-.65.52-1.49,1.13-1.86,1.36s-1.26,1.28-1.99,2.36c-.71,1.05-1.62,2.38-2.02,2.93-.37.58-.76,1.34-.86,1.7-.08.37-.37,1.21-.65,1.83-.39.86-.52,1.76-.52,3.43,0,1.26.08,2.44.18,2.62.31.52,1.13-.47,1.13-1.39,0-1.47,1.52-5.5,1.99-5.34.39.13.5,1.36.18,1.96-.16.29-.34,1.31-.42,2.31s-.05,1.65.03,1.47c.26-.58.92-.37.76.26-.18.92.24,5.45.52,5.53.16.03.39-1.41.58-3.48.31-3.64.45-4.11,2.38-8.12,1.28-2.62,4.56-6.47,6.97-8.12.52-.37,1.47-1.02,2.07-1.47.6-.42,1.76-1.05,2.54-1.36,1.36-.52,2.02-.65,5.06-1.02.94-.1,1.23-.26,1.23-.6,0-.68-.73-1.21-1.1-.84-.47.47-.73.39-.73-.21,0-.26.21-.63.47-.76.39-.24.39-.26-.13-.29-.34,0-.6.1-.6.24Z"/>
      <path d="M58.88,31.24c.29.31,2.65,1.21,2.49.94-.18-.26-.71-.5-1.96-.89-.37-.1-.6-.13-.52-.05Z"/>
      <path d="M63.33,33.33c0,.21.26.55.6.76.31.24,1.36,1.21,2.36,2.17,1.81,1.83,2.15,1.94,1.23.47-1.05-1.73-4.19-4.27-4.19-3.41Z"/>
      <path d="M69.36,41.01c0,.13.18.5.39.79.21.26.39.37.39.21,0-.13-.18-.5-.39-.79-.21-.26-.39-.37-.39-.21Z"/>
      <path d="M70.46,43.73c0,.37.05.5.13.31.05-.16.05-.47,0-.65-.08-.16-.13-.03-.13.34Z"/>
      <path d="M114.42,49.42c-1.55.26-3.88,1.21-5,2.02-1.76,1.31-2.46,2.86-2.46,5.53,0,1.81.1,2.25.71,3.3,1.34,2.25,3.01,3.14,8.49,4.45,3.96.94,4.45,1.13,4.82,1.81.79,1.44-.58,2.2-3.69,2.04-1.94-.08-2.17-.16-2.75-.81-.34-.42-.63-1.02-.63-1.39v-.63h-7.41l.16,1.52c.39,4.58,4.17,6.86,11.32,6.94,7.02.05,10.74-2.49,11.08-7.6.16-2.49-.37-3.9-1.96-5.29-1.44-1.28-2.78-1.81-7.52-2.91-2.67-.63-3.8-1.02-4.24-1.44-1.23-1.23.13-2.49,2.65-2.49,1.62,0,2.65.58,3.04,1.7l.34.92h7.26l-.16-1c-.6-3.51-2.54-5.42-6.6-6.47-1.39-.37-5.76-.5-7.41-.21Z"/>
      <path d="M1.69,49.68c-.1.08-.18,5.58-.18,12.18v12h7.86v-9.17h8.65v9.17h7.86v-24.36h-7.86v8.91h-8.65v-8.91h-3.75c-2.07,0-3.85.08-3.93.18Z"/>
      <path d="M78.19,49.68c-.29.26-.21,13.28.08,15.75.65,5.87,4.69,8.8,12.05,8.78,5.95-.03,9.69-2.04,11.32-6.08.55-1.39.6-1.86.68-10.06l.08-8.57h-7.89v7.78c0,7.13-.05,7.91-.52,8.91-.68,1.55-1.81,2.17-3.8,2.17-1.86,0-3.01-.58-3.72-1.89-.42-.76-.47-1.76-.55-8.93l-.08-8.04h-3.75c-2.04,0-3.82.08-3.9.18Z"/>
      <path d="M133.02,61.68v12.18h21.22v-5.76h-13.36v-3.67h11.27v-5.76h-11.27v-3.14h13.1v-6.03h-20.96v12.18Z"/>
      <path d="M34.44,62.65c-.1.39.05.79.6,1.34.97,1,1.31.73.65-.5-.68-1.28-1.07-1.55-1.26-.84Z"/>
      <path d="M39.49,69.38c0,.26.94.55,1.15.37.08-.08.08-.26,0-.37-.18-.31-1.15-.31-1.15,0Z"/>
      <path d="M59.22,70.09c-.21.55.34,1.1.73.71.34-.34.13-1.13-.29-1.13-.16,0-.34.18-.45.42Z"/>
    </g>
  </g>
</svg>