<?xml version="1.0" standalone="no"?>
<!DOCTYPE svg PUBLIC "-//W3C//DTD SVG 20010904//EN"
 "http://www.w3.org/TR/2001/REC-SVG-20010904/DTD/svg10.dtd">
<svg version="1.0" xmlns="http://www.w3.org/2000/svg"
 width="1920.000000pt" height="1080.000000pt" viewBox="0 0 1920.000000 1080.000000"
 preserveAspectRatio="xMidYMid meet">

<g transform="translate(0.000000,1080.000000) scale(0.100000,-0.100000)"
fill="#000000" stroke="none">
<path d="M9696 7194 c-21 -20 -20 -32 7 -76 l23 -36 23 40 c21 37 21 41 6 64
-18 28 -37 31 -59 8z"/>
<path d="M6585 7183 c49 -6 73 -24 89 -65 13 -32 16 -96 16 -391 0 -204 -4
-367 -10 -388 -13 -46 -40 -70 -88 -79 -20 -4 146 -8 371 -9 l407 -1 0 45 c0
25 -2 45 -4 45 -2 0 -23 -7 -47 -15 -123 -44 -403 -75 -480 -55 -72 20 -74 27
-77 420 -2 190 0 364 3 387 9 59 46 101 93 106 20 2 -39 4 -133 4 -93 0 -156
-2 -140 -4z"/>
<path d="M7550 6918 c0 -150 4 -311 10 -356 17 -149 83 -248 198 -294 50 -20
74 -23 207 -23 133 0 157 3 207 23 115 46 181 145 198 294 6 45 10 206 10 356
l0 272 -35 0 -35 0 0 -272 c-1 -347 -10 -455 -47 -527 -49 -94 -148 -141 -298
-141 -150 0 -249 47 -298 141 -37 72 -46 180 -47 527 l0 272 -35 0 -35 0 0
-272z"/>
<path d="M8620 7184 c0 -3 14 -22 31 -41 l30 -35 -3 -367 c-3 -311 -5 -371
-19 -401 -20 -42 -47 -68 -85 -80 -19 -5 36 -8 151 -8 127 0 169 3 142 9 -57
13 -84 36 -112 93 -44 90 -55 178 -62 471 -4 228 -3 268 8 257 8 -7 169 -196
359 -420 l346 -407 48 -3 48 -3 -36 44 -36 44 0 359 c0 207 4 374 10 395 12
42 46 76 86 89 19 5 -33 8 -146 8 -102 0 -159 -3 -137 -8 69 -13 116 -78 144
-199 18 -78 32 -633 15 -616 -5 6 -164 192 -352 415 l-343 405 -43 3 c-24 2
-44 0 -44 -4z"/>
<path d="M10035 7178 c-3 -7 -73 -200 -156 -428 -83 -228 -157 -432 -165 -452
l-13 -38 153 0 153 0 18 65 17 65 164 0 163 0 19 -62 18 -63 157 -3 c86 -1
157 0 157 2 0 7 -307 850 -325 894 l-14 32 -171 0 c-127 0 -172 -3 -175 -12z
m224 -417 l48 -161 -100 0 c-90 0 -99 2 -94 18 40 144 92 310 95 307 2 -2 25
-76 51 -164z"/>
<path d="M10837 7183 c-4 -3 -7 -213 -7 -465 l0 -458 150 0 150 0 0 170 0 170
55 0 55 0 85 -170 85 -170 165 0 c155 0 165 1 157 18 -5 9 -51 94 -101 189
-50 94 -91 174 -91 177 0 3 17 14 38 25 85 44 131 127 132 236 0 146 -86 247
-235 274 -63 12 -627 16 -638 4z m549 -236 c31 -36 31 -78 0 -114 -24 -28 -26
-28 -138 -28 l-113 0 -3 74 c-2 41 0 81 3 89 4 12 26 13 116 10 107 -3 112 -4
135 -31z"/>
<path d="M11820 7070 l0 -120 150 0 150 0 0 -345 0 -345 150 0 150 0 0 345 0
345 150 0 150 0 0 120 0 120 -450 0 -450 0 0 -120z"/>
<path d="M8540 6121 c0 -4 -21 -11 -47 -14 -109 -15 -218 -38 -240 -52 -12 -8
-28 -15 -36 -15 -7 0 -18 -5 -25 -12 -7 -7 -30 -13 -52 -14 -49 -3 -121 -36
-180 -84 -25 -20 -57 -43 -71 -52 -14 -9 -48 -49 -76 -90 -27 -40 -62 -91 -77
-112 -14 -22 -29 -51 -33 -65 -3 -14 -14 -46 -25 -70 -15 -33 -20 -67 -20
-131 0 -48 3 -93 7 -100 12 -20 43 18 43 53 0 56 58 210 76 204 15 -5 19 -52
7 -75 -6 -11 -13 -50 -16 -88 -3 -38 -2 -63 1 -56 10 22 35 14 29 -10 -7 -35
9 -208 20 -211 6 -1 15 54 22 133 12 139 17 157 91 310 49 100 174 247 266
310 20 14 56 39 79 56 23 16 67 40 97 52 52 20 77 25 193 39 36 4 47 10 47 23
0 26 -28 46 -42 32 -18 -18 -28 -15 -28 8 0 10 8 24 18 29 15 9 15 10 -5 11
-13 0 -23 -4 -23 -9z"/>
<path d="M8830 6017 c11 -12 101 -46 95 -36 -7 10 -27 19 -75 34 -14 4 -23 5
-20 2z"/>
<path d="M9000 5937 c0 -8 10 -21 23 -29 12 -9 52 -46 90 -83 69 -70 82 -74
47 -18 -40 66 -160 163 -160 130z"/>
<path d="M9230 5644 c0 -5 7 -19 15 -30 8 -10 15 -14 15 -8 0 5 -7 19 -15 30
-8 10 -15 14 -15 8z"/>
<path d="M9272 5540 c0 -14 2 -19 5 -12 2 6 2 18 0 25 -3 6 -5 1 -5 -13z"/>
<path d="M10950 5323 c-59 -10 -148 -46 -191 -77 -67 -50 -94 -109 -94 -211 0
-69 4 -86 27 -126 51 -86 115 -120 324 -170 151 -36 170 -43 184 -69 30 -55
-22 -84 -141 -78 -74 3 -83 6 -105 31 -13 16 -24 39 -24 53 l0 24 -141 0 -142
0 6 -58 c15 -175 159 -262 432 -265 268 -2 410 95 423 290 6 95 -14 149 -75
202 -55 49 -106 69 -287 111 -102 24 -145 39 -162 55 -47 47 5 95 101 95 62 0
101 -22 116 -65 l13 -35 138 0 139 0 -6 38 c-23 134 -97 207 -252 247 -53 14
-220 19 -283 8z"/>
<path d="M6647 5313 c-4 -3 -7 -213 -7 -465 l0 -458 150 0 150 0 0 175 0 175
165 0 165 0 0 -175 0 -175 150 0 150 0 0 465 0 465 -150 0 -150 0 0 -170 0
-170 -165 0 -165 0 0 170 0 170 -143 0 c-79 0 -147 -3 -150 -7z"/>
<path d="M9567 5313 c-11 -10 -8 -507 3 -601 25 -224 179 -336 460 -335 227 1
370 78 432 232 21 53 23 71 26 384 l3 327 -150 0 -151 0 0 -297 c0 -272 -2
-302 -20 -340 -26 -59 -69 -83 -145 -83 -71 0 -115 22 -142 72 -16 29 -18 67
-21 341 l-3 307 -143 0 c-78 0 -146 -3 -149 -7z"/>
<path d="M11660 4855 l0 -465 405 0 405 0 0 110 0 110 -255 0 -255 0 0 70 0
70 215 0 215 0 0 110 0 110 -215 0 -215 0 0 60 0 60 250 0 250 0 0 115 0 115
-400 0 -400 0 0 -465z"/>
<path d="M7897 4818 c-4 -15 2 -30 23 -51 37 -38 50 -28 25 19 -26 49 -41 59
-48 32z"/>
<path d="M8090 4561 c0 -10 36 -21 44 -14 3 3 3 10 0 14 -7 12 -44 12 -44 0z"/>
<path d="M8843 4534 c-8 -21 13 -42 28 -27 13 13 5 43 -11 43 -6 0 -13 -7 -17
-16z"/>
</g>
</svg>
